HIERARCHY
ROOT Hips
{
	OFFSET 0.00 0.00 0.00
	CHANNELS 6 Xposition Yposition Zposition Xrotation Yrotation Zrotation
	JOINT LeftUpLeg
	{
		OFFSET 3.34807 0.00000 0.00000
		CHANNELS 3 Xrotation Yrotation Zrotation
		JOINT LeftLeg
		{
			OFFSET 0.00000 -16.98552 0.00000
			CHANNELS 3 Xrotation Yrotation Zrotation
			JOINT LeftFoot
			{
				OFFSET 0.00000 -16.83686 0.00000
				CHANNELS 3 Xrotation Yrotation Zrotation
				JOINT LeftToeBase
				{
					OFFSET 0.00000 -1.59599 5.95633
					CHANNELS 3 Xrotation Yrotation Zrotation
					End Site
					{
						OFFSET 0.00000 0.00000 2.95275
					}
				}
			}
		}
	}
	JOINT RightUpLeg
	{
		OFFSET -3.34807 0.00000 0.00000
		CHANNELS 3 Xrotation Yrotation Zrotation
		JOINT RightLeg
		{
			OFFSET 0.00000 -16.98552 0.00000
			CHANNELS 3 Xrotation Yrotation Zrotation
			JOINT RightFoot
			{
				OFFSET 0.00000 -16.83686 0.00000
				CHANNELS 3 Xrotation Yrotation Zrotation
				JOINT RightToeBase
				{
					OFFSET 0.00000 -1.59599 5.95633
					CHANNELS 3 Xrotation Yrotation Zrotation
					End Site
					{
						OFFSET 0.00000 0.00000 2.95275
					}
				}
			}
		}
	}
	JOINT Spine
	{
		OFFSET 0.00000 0.03937 0.00000
		CHANNELS 3 Xrotation Yrotation Zrotation
		JOINT Spine1
		{
			OFFSET 0.00000 7.93124 0.00000
			CHANNELS 3 Xrotation Yrotation Zrotation
			JOINT Neck
			{
				OFFSET 0.00000 8.48368 0.00000
				CHANNELS 3 Xrotation Yrotation Zrotation
				JOINT Head
				{
					OFFSET 0.00000 6.65077 0.00000
					CHANNELS 3 Xrotation Yrotation Zrotation
					End Site
					{
						OFFSET 0.00000 4.52755 0.00000
					}
				}
			}
			JOINT LeftShoulder
			{
				OFFSET 0.00000 8.48368 0.00000
				CHANNELS 3 Xrotation Yrotation Zrotation
				JOINT LeftArm
				{
					OFFSET 7.74502 -0.00003 0.00000
					CHANNELS 3 Xrotation Yrotation Zrotation
					JOINT LeftForeArm
					{
						OFFSET 12.49824 -0.00005 0.00000
						CHANNELS 3 Xrotation Yrotation Zrotation
						JOINT LeftHand
						{
							OFFSET 9.88337 -0.00004 0.00000
							CHANNELS 3 Xrotation Yrotation Zrotation
							JOINT LeftHandThumb
							{
								OFFSET 0.00000 0.00000 0.00000
								CHANNELS 3 Xrotation Yrotation Zrotation
								End Site
								{
									OFFSET 0.00000 0.00000 3.93700
								}
							}
							JOINT L_Wrist_End
							{
								OFFSET 3.93700 -0.00001 0.00000
								CHANNELS 3 Xrotation Yrotation Zrotation
							}
						}
					}
				}
			}
			JOINT RightShoulder
			{
				OFFSET 0.00000 8.48368 0.00000
				CHANNELS 3 Xrotation Yrotation Zrotation
				JOINT RightArm
				{
					OFFSET -7.74502 -0.00003 0.00000
					CHANNELS 3 Xrotation Yrotation Zrotation
					JOINT RightForeArm
					{
						OFFSET -12.49824 -0.00005 0.00000
						CHANNELS 3 Xrotation Yrotation Zrotation
						JOINT RightHand
						{
							OFFSET -9.88337 -0.00004 0.00000
							CHANNELS 3 Xrotation Yrotation Zrotation
							JOINT RightHandThumb
							{
								OFFSET 0.00000 0.00000 0.00000
								CHANNELS 3 Xrotation Yrotation Zrotation
								End Site
								{
									OFFSET 0.00000 0.00000 3.93700
								}
							}
							JOINT R_Wrist_End
							{
								OFFSET -5.39369 -0.00002 0.00000
								CHANNELS 3 Xrotation Yrotation Zrotation
							}
						}
					}
				}
			}
		}
	}
}
MOTION
Frames: 6
Frame Time: 0.033332
 -80.0313 33.6022 -8.7617 -149.4111 -85.3064 -149.5279 -21.2579 2.2716 2.2552 15.1785 -0.0000 0.0000 2.0856 -5.8640 -15.7385 14.3179 0.0000 -0.0000 -7.0168 -7.3846 -2.1324 55.9999 -0.0000 0.0000 -12.4540 -13.5044 21.4517 -17.3138 0.0000 0.0000 -2.3122 -5.1002 -3.6032 19.5748 -9.0343 -0.4172 -12.1656 11.3600 3.6158 -7.7883 -3.6060 -0.2159 -16.4566 8.1770 27.8893 -52.3961 -10.3175 -88.9217 -0.0003 -52.6241 -0.0001 -23.0422 -48.3783 58.2589 -0.0000 0.0000 -0.0000 -0.0000 0.0000 -0.0000 24.8116 -13.0352 -13.2784 -10.8951 36.7681 93.5106 0.0000 -6.3294 0.0000 92.0903 -71.1528 -92.6655 -0.0000 -0.0000 0.0000 -0.0000 -0.0000 0.0000
 -78.8789 33.1006 -8.9378 -132.0761 -87.1060 -131.9154 -25.0845 0.7577 1.6320 17.6639 0.0000 0.0000 3.4318 -6.2141 -15.8507 13.6882 0.0000 0.0000 -5.1133 -11.2201 -1.4111 51.4309 -0.0000 0.0000 -22.0873 -16.4323 21.8584 -9.4119 0.0000 -0.0000 -1.9958 -4.5286 -3.2543 19.4076 -8.4457 -0.4594 -12.2079 10.5094 4.0470 -8.0534 -5.2254 -1.0973 -15.0825 8.9769 26.0321 -47.2771 -16.2896 -93.8410 -0.0002 -45.1696 -0.0001 -30.6929 -41.4547 49.1483 -0.0000 0.0000 -0.0000 -0.0000 0.0000 -0.0000 22.6065 -10.8072 -10.9901 -18.2890 35.7844 95.7119 0.0000 -6.6247 0.0000 74.9524 -58.5491 -93.0868 -0.0000 0.0000 -0.0000 -0.0000 0.0000 -0.0000
 -77.4821 32.5735 -9.1152 -140.2950 -87.5633 -140.9552 -29.9573 -1.3139 2.7416 20.5811 -0.0000 0.0000 6.1683 -5.8409 -17.6553 12.4394 -0.0000 0.0000 -6.5527 -12.2990 0.0663 50.0995 -0.0000 0.0000 -28.4343 -17.5262 19.6309 -5.1712 -0.0000 -0.0000 -1.5657 -3.3407 -2.2594 19.1409 -6.8702 0.2603 -12.1611 9.8862 4.1578 -8.6446 -6.4473 -1.9564 -13.3548 10.3774 23.8841 -42.5333 -18.2096 -97.7427 -0.0002 -37.2512 -0.0001 -27.6960 -36.5003 43.1225 -0.0000 0.0000 -0.0000 -0.0000 0.0000 -0.0000 20.3175 -7.8198 -9.4925 -26.9805 34.2503 96.0458 0.0000 -6.2439 0.0000 79.4757 -77.4693 -94.8392 -0.0000 0.0000 -0.0000 -0.0000 0.0000 -0.0000
 -76.0034 32.1378 -9.1887 -147.3288 -85.9280 -148.5087 -34.5492 -1.8366 4.3216 25.1853 -0.0000 0.0000 11.2111 -6.2359 -21.5594 9.0191 -0.0000 0.0000 -9.2657 -11.7714 0.3968 52.1754 -0.0000 0.0000 -31.7549 -16.5820 17.7382 -2.1912 0.0000 0.0000 -0.9823 -1.8878 -1.6087 20.4252 -5.0177 0.9446 -12.4135 9.6091 4.4666 -9.1942 -7.0165 -2.6738 -12.6125 11.2602 23.3009 -36.1558 -22.3345 -103.3905 -0.0000 -10.4066 -0.0000 -96.4686 10.2664 -32.7233 -0.0000 0.0000 -0.0000 -0.0000 0.0000 -0.0000 17.1706 -3.3199 -8.6520 -34.9516 30.7777 93.2353 0.0000 -3.9153 0.0000 68.7349 -80.6959 -100.1643 -0.0000 0.0000 -0.0000 -0.0000 0.0000 -0.0000
 -74.5484 31.7804 -9.2252 -148.1819 -84.6744 -149.4376 -41.5329 -0.9590 5.5326 33.3913 -0.0000 0.0000 18.4463 -7.2368 -26.8928 7.7720 -0.0000 0.0000 -11.7737 -12.8171 -0.0551 53.5661 -0.0000 0.0000 -34.8311 -14.9800 14.9321 1.3916 -0.0000 -0.0000 -0.6548 -1.2862 -1.1557 22.0780 -4.0922 1.4914 -13.1326 9.8849 4.9463 -9.5558 -6.9416 -3.8672 -10.6249 13.6047 21.1017 -28.9466 -22.5232 -104.1056 -0.0000 -6.2379 -0.0000 -92.9852 -6.3143 -22.9211 -0.0000 -0.0000 0.0000 -0.0000 -0.0000 0.0000 14.5634 0.9053 -8.4440 -45.2216 25.0666 89.4782 0.0000 -1.7008 0.0000 65.3694 -82.0332 -102.5755 -0.0000 -0.0000 0.0000 -0.0000 -0.0000 0.0000
 -73.2459 31.5756 -9.1835 -150.1928 -83.8440 -151.2133 -49.8254 -1.9520 5.8318 46.5329 -0.0000 0.0000 19.4003 -8.6768 -27.1715 14.6835 0.0000 -0.0000 -14.8174 -14.2960 -1.1157 55.3201 -0.0000 0.0000 -35.6461 -13.2411 13.8086 3.5857 0.0000 -0.0000 -0.5753 -0.4959 -0.1775 22.9168 -3.3305 1.3152 -12.9234 9.9652 5.0530 -10.6787 -6.9964 -5.2487 -8.5771 16.1835 19.2443 -20.0003 -34.1048 -102.8958 -0.0000 -9.0615 -0.0000 -93.9287 -16.1477 -13.0921 -0.0000 -0.0000 0.0000 -0.0000 -0.0000 0.0000 11.6675 4.4723 -10.2110 -55.8560 15.8736 86.4507 0.0000 -0.5744 0.0000 69.5828 -80.6500 -101.5951 -0.0000 -0.0000 0.0000 -0.0000 -0.0000 0.0000
